# xmcd
#
# Track frame offsets: 
#        150
#        30011
#        60987
#        92859
#        123025
#        154820
#        167958
#
# Disc length: 2464 seconds
#
# Revision: 1
# Processed by: cddbd v1.5.2PL0 Copyright (c) Steve Scherf et al.
# Submitted via: ExactAudioCopyFreeDBPlugin 1.0
#
DISCID=47099e07
DTITLE=Harvey Mason - Marching In The Street
DYEAR=1975
DGENRE=Jazz+Funk
TTITLE0=Marching In The Street
TTITLE1=Modaji
TTITLE2=Hop Scotch
TTITLE3=Wild Rice
TTITLE4=Ballad For Heather
TTITLE5=Fair Three Well
TTITLE6=Building Love (Hymn)
EXTD=
EXTT0=
EXTT1=
EXTT2=
EXTT3=
EXTT4=
EXTT5=
EXTT6=
PLAYORDER=
